<?xml version="1.0" encoding="UTF-8"?>
<svg id="Layer_1" data-name="Layer 1" xmlns="http://www.w3.org/2000/svg" version="1.1" viewBox="0 0 57 57">
  <defs>
    <style>
      .cls-1 {
        fill: #f59e0b;
      }

      .cls-1, .cls-2 {
        stroke-width: 0px;
      }

      .cls-2 {
        fill: #fff;
      }
    </style>
  </defs>
  <rect class="cls-1" x="0" y="0" width="57" height="57" rx="12" ry="12"/>
  <path class="cls-2" d="M40.6,29.5c-.3-1.3-2-2.3-3.3-1.7l-4.9,2.2v-8.7l8.5-13.4c.6-1,.4-2.3-.6-2.9-1-.6-2.3-.3-2.8.6l-7.2,11.4h-4.3c-.3,0-.6,0-.8.2l-7.5,2.9-3.8-5.8c-.6-1-1.9-1.3-2.9-.6s-1.3,1.9-.6,2.9l4.8,7.2c.5.8,1.7,1.2,2.6.8l5.5-2.1v9.5l-7.5,16.6c-.6,1.3,0,2.7,1.4,3.4s2.8.3,3.4-1l6-13.8c.5.2,1.1.2,1.7.2s1.1,0,1.6-.3l6.8-3.1,1.5,5.9c.3,1.3,1.7,2.1,3,1.8,1.3-.3,2.1-1.7,1.8-3l-2.4-9.3h0ZM27.4,16.2c2.1,0,3.8-1.7,3.8-3.7s-1.7-3.7-3.8-3.7-3.8,1.7-3.8,3.7,1.7,3.7,3.8,3.7Z"/>
</svg>