<?xml version="1.0" encoding="utf-8"?>
<!-- Generator: Adobe Illustrator 28.1.0, SVG Export Plug-In . SVG Version: 6.00 Build 0)  -->
<svg version="1.1" id="Layer_1" xmlns="http://www.w3.org/2000/svg" xmlns:xlink="http://www.w3.org/1999/xlink" x="0px" y="0px"
	 viewBox="0 0 1000 1000" enable-background="new 0 0 1000 1000" xml:space="preserve">
<rect fill="#1E1E26" width="1000" height="1000"/>
<g>
	<path fill="none" stroke="#DEC398" stroke-width="1.5" stroke-linecap="round" stroke-miterlimit="10" d="M466.8,466.2
		c-3.5-5.3-3.6-12.9,0.5-17.7c2.4-2.7,5.8-4.2,9.2-5.5c5.2-1.9,10.6-3.4,16.1-3.3c5.5,0.1,11.1,2.1,14.8,6.2
		c8.1,9,2.9,23.7-7.6,28.3C489.5,478.7,473.1,475.8,466.8,466.2z"/>
	<path fill="none" stroke="#DEC398" stroke-width="1.5" stroke-linecap="round" stroke-miterlimit="10" d="M518.3,498.8
		c-8.3,3.5-17.5,4.1-26.5,3.2c-12.3-1.1-24.6-4.9-34.5-12.4s-17-19-17.6-31.3c-0.7-14.9,7.9-28.8,18.2-39.6
		c10.3-10.8,22.6-19.7,32.1-31.3c3-3.7,5.9-7.7,9.9-10.2c4.1-2.4,9.9-2.8,13.2,0.7c2.6,2.8,2.8,6.9,3,10.7
		c0.9,18.3,4.9,37,12.9,53.6c6.1,12.6,10.7,23.5,6.6,37.9C533.3,488.7,526.4,495.4,518.3,498.8z"/>
	<path fill="none" stroke="#DEC398" stroke-width="1.5" stroke-linecap="round" stroke-miterlimit="10" d="M558.7,483.4
		c-1.1,10.7-5.7,21.3-13.9,28.2c-8.5,7.3-19.8,10.1-30.9,11.5c-16.3,2.1-33.2,1.6-48.9-3.2c-15.8-4.8-30.4-13.9-40.4-27
		c-7.7-10.1-12.5-22.9-10.9-35.5c2.6-19.9,19.9-34,31.4-50.5c9.5-13.6,15.4-29.7,16.9-46.1c0.5-5.5,0.7-11.6,4.1-15.9
		c3.2-4,8.5-5.7,13.6-5.6c5.1,0.1,10,1.7,14.8,3.2c9.5,3.1,19.4,6.5,25.9,14.1c7,8.3,8.5,19.7,10.7,30.3
		C538.1,419.6,562.2,449,558.7,483.4z"/>
	<path fill="none" stroke="#DEC398" stroke-width="3" stroke-linecap="round" stroke-miterlimit="10" d="M408.9,313.7
		c4.2-10.3,16.3-15,27.3-16.5c30.9-4.1,63.6,9.2,82.8,33.8c20.4,26.1,24.9,61.1,40.3,90.4c7.6,14.4,18.1,28.2,19.7,44.4
		c1.3,12.6-3,25.2-8.3,36.7c-7.2,15.7-16.8,31.1-31.2,40.6c-17.5,11.5-40,12.8-60.7,9.3c-24.6-4.2-48.1-14.7-67.6-30.4
		c-11-8.8-21.1-20-23.5-33.9c-2.1-12.5,2.4-25.1,7-36.9c7.8-19.9,16-39.6,24.8-59.1c3.2-7,8.4-15,7.4-23.1c-1.2-9-7.6-17.3-12.1-25
		C409.8,335.1,404.7,324,408.9,313.7z"/>
	<path fill="none" stroke="#DEC398" stroke-width="1.5" stroke-linecap="round" stroke-miterlimit="10" d="M379.6,351.1
		c5.9,16.5,15.1,32.4,15.5,50c0.6,22.2-12.9,42-24.1,61.2c-11.2,19.2-20.6,42.7-11.9,63.1c5.7,13.3,18.2,22.5,31.5,28.1
		c13.3,5.6,27.6,8.2,41.5,12.2c18.1,5.2,35.4,12.7,53.5,17.6c18.1,5,37.6,7.3,55.6,1.9c30.4-9.1,51.1-39.4,56.1-70.7
		c5-31.4-3.4-63.4-15.9-92.6c-12.5-29.2-29-56.5-41.4-85.7c-10.1-23.8-19-50.6-41.1-64.1c-12.8-7.8-28.4-9.8-43.4-9.8
		c-15.3,0-30.8,2-44.8,8.1C378.4,284.5,368,318.6,379.6,351.1z"/>
	<path fill="none" stroke="#DEC398" stroke-width="1.5" stroke-linecap="round" stroke-miterlimit="10" d="M0,673.8
		c1.7,0.2,3.4,0.4,5,0.8c3.5,0.9,6.8,2.7,9,5.6c2.8,3.9,3,9.4,1.2,13.8c-1.8,4.5-5.5,8-9.5,10.6c-1.8,1.1-3.7,2.1-5.6,3"/>
	<path fill="none" stroke="#DEC398" stroke-width="1.5" stroke-linecap="round" stroke-miterlimit="10" d="M0,661.4
		c3.6-0.5,7.3-0.8,10.9-0.5c5.9,0.4,11.9,2.4,16,6.6c6.6,6.7,7.2,17.6,3.5,26.3c-3.6,8.6-10.8,15.3-18.2,21c-4,3.1-8.2,6-12.3,9.1"
		/>
	<path fill="none" stroke="#DEC398" stroke-width="1.5" stroke-linecap="round" stroke-miterlimit="10" d="M0,742.2
		c9.2-4.6,18.1-9.7,26.1-16.2c10.8-8.8,19.7-20.7,22.2-34.4c1.7-9,0.4-18.7-4.4-26.5c-9.5-15.4-29.7-20-43.8-31.2"/>
	<path fill="none" stroke="#DEC398" stroke-width="1.5" stroke-linecap="round" stroke-miterlimit="10" d="M0,532
		c10.6,5.3,23.4,5.9,35.5,7.2c14.6,1.5,30.8,5.3,38.4,17.8c4.4,7.2,5.2,16,4.6,24.4c-1.3,19.9-9.2,40-4.1,59.2
		c4.4,16.5,18,30.7,17.4,47.8c-0.3,9.6-5.2,18.4-10,26.8c-5.3,9.3-10.6,18.6-15.9,27.9c-4.6,8-9.2,16.1-15.8,22.5
		c-6.6,6.4-15.6,10.9-24.7,10.1c-7.2-0.6-15-6.7-13.3-13.7c0.8-3.3,3.3-5.7,5.8-8c11.5-10.4,23.8-20,33.2-32.4s15.5-28.1,12.3-43.3
		c-3.5-16.8-17.4-29.1-27.3-43.1c-6.2-8.9-11-18.8-17.7-27.3c-4.9-6.3-11.2-12-18.5-15"/>
	<path fill="none" stroke="#DEC398" stroke-width="1.5" stroke-linecap="round" stroke-miterlimit="10" d="M0,501
		c11.6,9,27.8,11.8,42.7,14.3c18,3.1,38.1,8.3,47.1,24.3c6.2,11.1,5.3,24.8,2.7,37.2c-2.7,12.4-6.9,24.7-6.9,37.4
		c0,25.1,16.4,48,16,73.1c-0.2,11.5-3.9,22.6-8.3,33.3c-8.4,20.5-19.4,40.5-36.3,54.8c-15.6,13.3-37,21-56.9,17.3"/>
	<path fill="none" stroke="#DEC398" stroke-width="3" stroke-linecap="round" stroke-miterlimit="10" d="M0,464.9
		c20.1,14.1,41.9,25.7,64.9,34.4c10.1,3.8,20.5,7.2,29.6,13s17,14.6,18.8,25.2c2.1,12.2-3.8,24.1-6.9,36c-6.8,25.8-1,52.9,3.5,79.2
		c4.5,26.3,7.4,54.6-4.4,78.5c-7.4,15-13,30.3-25.3,41.7C58.7,792.7,29.3,803.9,0,803.7"/>
	<path fill="none" stroke="#DEC398" stroke-width="1.5" stroke-linecap="round" stroke-miterlimit="10" d="M0,433.7
		c19.5,0.5,37.4,11.8,55.5,19.9c13.6,6.1,28,10.6,41.2,17.5c13.3,6.8,25.8,16.5,32.4,29.9c7.2,14.8,6.5,32.2,3,48.3
		c-3.4,16.1-9.3,31.6-12,47.9c-4.3,26.3,0.3,53.2,4.8,79.5c5.7,33-4.2,68-25.3,94c-8.7,10.7-19.4,19.5-30.6,27.5
		c-12.6,9.1-25.9,17.4-40.5,22.4c-9.1,3.1-18.9,5-28.5,4.8"/>
	<path fill="none" stroke="#DEC398" stroke-width="1.5" stroke-linecap="round" stroke-miterlimit="10" d="M0,402.3
		c15.8-1.6,32.1,4.3,45.9,12.5c16.3,9.7,30.5,22.6,47,31.9c13.2,7.5,27.8,12.7,39,22.9c14.2,12.8,21.1,32.2,22.4,51.3
		c1.3,19.1-2.5,38.1-6.9,56.7c-4.4,18.6-9.4,37.2-10.6,56.3c-1.7,27,5.4,53.6,4.7,80.6c-0.8,30.6-17.1,60.4-42.4,77.6
		c-6.3,4.3-11.7,9-17.6,13.8c-7.8,6.3-15.7,12.7-24.5,17.7C39.8,833.4,20,837.2,0,838.1"/>
	<path fill="none" stroke="#DEC398" stroke-width="1.5" stroke-linecap="round" stroke-miterlimit="10" d="M0,376.4
		c20.3-0.8,40.7,6.7,58.3,17.2c20.8,12.4,38.9,29,58.7,43.1c18.8,13.4,40,25.6,51.3,45.7c14.4,25.8,8.9,57.8,0.9,86.2
		c-8.1,28.4-18.4,57.8-12.4,86.7c7.3,35.3,2.8,74.1-9.6,107.9c-3.8,10.3-9.1,20.7-16.6,28.7c-7.5,8-16.5,14.4-25.7,20.4
		C73,833.2,37.7,850.3,0,854.8"/>
	<path fill="none" stroke="#DEC398" stroke-width="1.5" stroke-linecap="round" stroke-miterlimit="10" d="M608.1,558.5
		c6.9-41.9,11.5-86.2-4.2-125.7c-8.8-22.2-23.6-41.5-33.2-63.3c-10.1-23.1-14.2-48.8-26.9-70.6c-18.8-32.6-55.6-52.8-93.1-55.5
		c-42.3-3.1-85.7,15.5-112.7,48.2c-10.3,12.4-18.5,28.6-14.6,44.3c3.1,12.1,12.8,21.2,19.6,31.7c10.4,15.9,14.1,36,10.2,54.5
		c-4.8,22.8-20.1,41.8-30.4,62.7c-10.3,20.9-14.6,48.4,0.9,65.9c9.5,10.7,24.1,14.8,37.8,18.6c24,6.5,48,12.9,72,19.4
		c26,7,52.4,14.1,79.3,14.5c17.3,0.2,35.5-2.1,51.3,5.1c8.7,4,17,11,26.5,9.9c9.2-1.1,15.9-9.9,17.9-18.9
		C611.5,586.2,605.9,571.5,608.1,558.5z"/>
	<path fill="none" stroke="#DEC398" stroke-width="1.5" stroke-linecap="round" stroke-miterlimit="10" d="M142.5,1000
		c7.8-4.6,15.4-9.4,23.6-13.3c11.6-5.5,24.9-8.9,37.4-5.9c10,2.4,19.1,9.8,22.4,19.2"/>
	<path fill="none" stroke="#DEC398" stroke-width="1.5" stroke-linecap="round" stroke-miterlimit="10" d="M111,1000
		c12.8-6.8,23.7-17.5,34.7-27.3c14.7-13.1,32.4-25.7,52-24.5c11.6,0.7,22.2,6.2,32.5,11.5c8.2,4.3,16.8,8.9,21.7,16.8
		c4.3,7,4.9,15.3,4.5,23.6"/>
	<path fill="none" stroke="#DEC398" stroke-width="1.5" stroke-linecap="round" stroke-miterlimit="10" d="M56.7,1000
		c5.6-7.6,13.8-13.5,22.4-18c11.8-6.1,24.8-10,36.6-16.2c18.5-9.6,34.2-24.4,53.7-31.9c23.5-9,49.9-6.4,74.1-13.3
		c15.2-4.3,29.2-12.3,44.5-16.5c5.2-1.4,10.6-2.4,15.8-1.3c5.2,1.1,10.2,4.5,11.9,9.6c2.7,8.2-3.8,16.2-9,23.1
		c-14,18.4-21.9,41.4-22.1,64.5"/>
	<path fill="none" stroke="#DEC398" stroke-width="3" stroke-linecap="round" stroke-miterlimit="10" d="M27.7,1000
		c-1.8-9.9-2.2-20.1,3.3-28.1c8.6-12.5,26.3-13.2,41.2-15.9c32.5-5.9,60.1-26.9,91.4-37.3c33.1-11,70.2-10.4,100.4-27.9
		c11.5-6.6,21.9-15.9,34.9-18.6c17.5-3.7,34.9,5.3,50.6,14c6.4,3.6,13,7.3,17.8,12.9c4.8,5.6,7.5,13.6,5,20.5
		c-4.2,11.4-18.8,13.8-29.3,20c-11.5,6.8-18.7,19.5-21.8,32.5c-2.2,9.1-2.6,18.5-2.6,28"/>
	<path fill="none" stroke="#DEC398" stroke-width="1.5" stroke-linecap="round" stroke-miterlimit="10" d="M0,958
		c13.1-9.4,31-13.8,47.2-17.5c80.1-18.5,157.3-50,227.5-92.8c13.9-8.5,30.1-17.8,45.6-12.6c9.8,3.3,16.8,11.9,25.8,17
		c19.6,11.2,44.1,4.5,66.1-0.9c13.6-3.4,29.8-5.5,40,4.1c9.1,8.4,9.5,23,5.2,34.6c-4.4,11.6-12.5,21.2-19.2,31.6
		c-15,23.2-22.5,51-21.6,78.6"/>
	<path fill="none" stroke="#DEC398" stroke-width="1.5" stroke-linecap="round" stroke-miterlimit="10" d="M333.5,1000
		c5-27,25.5-51,51.8-59.3c6.4-2,14.3-2.7,18.7,2.3c4.8,5.6,1.8,14.1-0.6,21.2c-3.9,11.5-5.6,23.7-5,35.8"/>
	<path fill="none" stroke="#DEC398" stroke-width="1.5" stroke-linecap="round" stroke-miterlimit="10" d="M0,937
		c46.2-7.8,86.8-35.9,130.9-52.4c37.4-14,83.1-10.1,111.8-37.8c10.1-9.8,20.4-19.7,32.4-27c12.1-7.3,26.3-11.9,40.3-10.2
		c11.5,1.5,22.1,7.1,33.4,10.1c22,5.9,45.8,1.6,66.8-7.3c12-5.1,24.5-11.7,37.4-9.4c9,1.6,16.9,7.6,22,15.3
		c5.1,7.6,7.6,16.7,8.6,25.8c2,17.8-1.5,36.2-9.9,52c-9.1,17.1-24.2,32.3-25.4,51.7c-1.2,18.7,11.6,36,27.6,45.8
		c4.2,2.5,8.6,4.7,13.1,6.5"/>
	<path fill="none" stroke="#DEC398" stroke-width="3" stroke-linecap="round" stroke-miterlimit="10" d="M0,917.3
		c17.3-1.9,34.1-8.6,49.8-16.4c20.4-10.2,40-22.4,61.7-29.6c38.3-12.6,83-9.3,115.1-33.6c15.4-11.6,26.1-28.4,39.8-42
		c13.8-13.6,33.3-24.3,51.8-19c10,2.9,18.1,9.9,27.7,13.9c18.2,7.7,39.2,3.6,58.2-1.9c19-5.5,38.5-12.4,58.2-9.7
		c18.8,2.5,32.3,22.2,37.5,40.4c5.2,18.2,2.7,37.9-3,56c-3.4,10.7-7.8,21.1-10.5,31.9c-2.8,10.9-3.9,22.5-0.5,33.2
		c5.5,17.5,23.7,30.4,39.9,37.5c10.8,4.7,25.6,4.8,37.2,5.7c13.2,1.1,26.4,1.2,39.6,0.6c9.6-0.5,19.6-1.4,28.5,2.1
		c6.2,2.4,11.6,7.5,13.8,13.5"/>
	<path fill="none" stroke="#DEC398" stroke-width="1.5" stroke-linecap="round" stroke-miterlimit="10" d="M665.4,1000
		c-1.9-10.3-11.2-19.6-21.6-23.2c-13.7-4.8-28.6-2.9-43.1-3c-23.3,0-46.7-5.2-67.9-15c-12.6-5.8-25.2-14.1-30.3-27
		c-6.6-16.6,1-35,6.6-52.1c8.9-27.5,12.1-58,1.6-84.9s-37.5-48.5-66.3-46.4c-24.8,1.8-47.9,20-72.2,15
		c-23.3-4.8-41.5-30.2-64.9-25.9c-10.6,1.9-19,9.8-26.2,17.8c-7.1,8-13.9,16.8-23.4,21.9c-11.7,6.3-36.2,5.1-31.7-13.7
		c1.3-5.3,4.5-9.9,7.7-14.3c14-19.3,28.4-38.4,45.9-54.5c17.5-16.1,38.3-29.3,61.4-34.7c9.2-2.2,19.2-3,27.9,0.6
		c7.2,2.9,12.9,8.6,19.6,12.4c13.1,7.5,29.2,7.6,44.2,6.2c15.1-1.3,30.4-3.8,45.2-0.7c18.2,3.9,34,16.2,44.6,31.5
		c10.6,15.3,16.5,33.5,19.8,51.9c5.2,28.8,0.8,59.1-5.3,87.7c-2.7,12.7-6.2,25.3-7,38.3c-0.8,13,1.3,26.6,8.7,37.2
		c10.2,14.5,28.6,21,46.2,22c17.6,0.9,35.1-2.9,52.7-5c11.7-1.4,24.3-1.9,34.6,3.8c11.4,6.2,18,18.8,20.1,31.6
		c1.2,7.4,1.2,14.9,0.5,22.5"/>
	<path fill="none" stroke="#DEC398" stroke-width="3" stroke-linecap="round" stroke-miterlimit="10" d="M717.5,1000
		c0.5-22.2-7.6-44.5-22.4-61c-17.8-19.7-44.9-30.6-71.4-28.6c-12.7,1-25.1,4.7-37.8,4.8c-12.7,0.2-26.6-4.2-33-15.2
		c-6.6-11.5-3-25.8,1-38.4c9.6-30.1,20.8-60.1,24.1-91.6c3.3-31.4-2.1-65.3-22.5-89.5c-28.1-33.4-75.9-40.5-119.2-45.3
		c-31.7-3.5-64-7-95.3-0.7c-35.6,7.2-68.5,27.4-91,56c-6.8,8.7-15.1,16.5-25.1,21.3c-9.9,4.8-22.6,5.5-31.4-1.3
		c-5.7-4.4-9-11.3-10.5-18.4c-1.6-7-1.7-14.3-2.2-21.5c-0.6-7.8-1.7-15.5-3.4-23.2c-1.4-6.3-4.6-11.5-4.4-18
		c0.2-15.7,6.4-30.6,11-45.4c6.7-21.5,10.4-43.9,11.1-66.3c0.9-30.4-18.1-57.3-37.8-80.5c-19.7-23.3-44.9-41.5-72.3-54.8
		c-7.4-3.6-15.8-7.6-18.3-15.5c-2.5-7.6,2-16.1,8.6-20.9c6.5-4.7,14.6-6.4,22.5-8.1c30.2-6.3,44.5-39.8,65.8-62.2
		c14.1-14.8,31.4-26.5,44-42.6c12.9-16.4,20.1-36.4,28.7-55.4c8.6-19,19.5-38,37-49.3c17.9-11.6,40.4-13.6,59.5-23
		c10.5-5.2,19.9-12.5,30.1-18.2c10.3-5.7,22.2-9.7,33.7-7.5c24,4.7,49.7-2.2,72.3,7.3c16.6,7,26.6,23.7,35.4,39.4
		c15.3,27.5,31.3,56.6,58,73.3c14.5,9.1,31.2,13.9,47.6,18.7c16.4,4.8,33.1,9.9,47.3,19.4c14.2,9.5,25.9,24.3,27.5,41.3
		c29.6,22.6,39.1,65.3,26.9,100.5c-6.7,19.1-19.6,35.4-27.5,54.1c-7.9,18.7-9.5,42.6,4.6,57.1c8.1,8.3,19.8,12,28.6,19.5
		c12.9,11,17.8,28.6,22.1,45c9.3,36.6,18.7,73.7,35.8,107.4c17.1,33.7,43,64.3,77.6,79.8c21.2,9.5,46.4,12.7,67.7,3.5
		c21.4-9.2,37.1-33,32.4-55.8c-4.8-23.3-27.5-38.4-38.3-59.6c-15-29.2-4.7-66.3,16.2-91.6c18.4-22.2,43.6-37.3,69-51.1"/>
	<path fill="none" stroke="#DEC398" stroke-width="1.5" stroke-linecap="round" stroke-miterlimit="10" d="M0,870.3
		c27.4-6,54.7-13.1,80.3-24.8c27.5-12.5,53-30.5,70.6-55.1c5.9-8.2,11.9-17.9,21.8-20.2c10.4-2.4,20.6,4.5,28,12
		c7.9,8,14.8,18.5,13.2,29.6c-1,6.9-5.3,13-10.7,17.4c-5.4,4.4-12,7.2-18.6,9.5c-28.9,10.1-60.2,11-89.8,18.8
		c-33.2,8.8-63.4,26.2-94.8,40.5"/>
	<path fill="none" stroke="#DEC398" stroke-width="1.5" stroke-linecap="round" stroke-miterlimit="10" d="M731.3,1000
		c0.5-28.5-10.6-57.2-30.6-77.5c-24.1-24.5-60.5-36.2-94.4-30.3c-7.8,1.3-15.6,3.6-23.5,3.1c-7.9-0.5-16.3-4.4-19.2-11.8
		c-4.7-11.9,6.4-23.4,13.8-33.9c10.2-14.3,14.4-32.6,11.5-49.9c-0.9-5.6-2.6-11.2-1.9-16.8c0.7-5.6,4.5-11.4,10.1-12
		c11.3-1.1,15.1,17,26.1,19.7c6.8,1.7,13.8-3.8,16.3-10.3c2.5-6.6,1.8-13.9,1-20.9c-5.7-51-11.5-102-17.2-153.1
		c-2.3-20.2-4.5-41.1,2.2-60.3c6.7-19.2,24.9-35.9,45.1-33.9c12.6,1.3,23.7,9.6,31.1,19.9c7.4,10.3,11.5,22.6,15.3,34.7
		c9.4,30.7,16.6,62.1,27.9,92.2c11.3,30.1,27.2,59.2,51.1,80.6c23.7,21.2,54.7,33.9,86.5,35.4c24.6,1.2,50.3-4.7,69.3-20.3
		c19-15.6,30.1-42,23.7-65.7c-8.3-31-42.4-50.8-48.1-82.3c-3.9-21.3,6.6-43.1,22.1-58.3c14.3-14.1,32.5-23.5,50.6-32.4"/>
	<path fill="none" stroke="#DEC398" stroke-width="1.5" stroke-linecap="round" stroke-miterlimit="10" d="M497,235.4
		c-28.6-7.8-58.6-11.5-87.9-7c-29.3,4.5-57.7,17.8-77.3,39.9c-19.6,22.2-29.5,53.6-22.4,82.4c4.3,17.5,14.5,33.9,14.5,51.9
		c0,21.2-13.9,39.5-21.6,59.3c-17.3,44.4-2.6,95.7-16.6,141.2c-9.8,31.8-34.1,58.9-64.7,72.1c-6.2,2.7-13.5,4.8-19.6,1.7
		c-6.1-3.1-8.8-10.3-9.9-17c-8.2-46.1,28.3-89.9,25.9-136.7c-1.9-37.3-28-68.8-38.1-104.8c-10.3-36.7-3.2-76.5,12.1-111.4
		s38.3-65.8,61.1-96.3c13.9-18.7,19.1-40.9,37.4-55.3c18.3-14.4,40-23.8,61.4-33.1c12.8-5.6,25.9-11.2,39.8-12.6
		c16.9-1.7,33.9,2.9,49.4,9.8c31.9,14.3,59.3,38.6,77.1,68.6c5.4,9.1,10.1,19.5,8.1,29.9C523.4,229.3,507.9,238.4,497,235.4z"/>
	<path fill="none" stroke="#DEC398" stroke-width="1.5" stroke-linecap="round" stroke-miterlimit="10" d="M451.8,215.5
		c-43.4-4.6-89.6,1.3-125.7,26s-59,71-47.9,113.2c4.8,18.1,15.5,35,15.8,53.8c0.3,17.9-8.8,34.4-14.3,51.4
		c-9.4,28.7-8.7,59.6-10.7,89.7c-2.1,30.1-7.6,61.7-26.9,84.9c-6.2,7.5-16.5,14.4-25.2,9.8c-6-3.2-8.3-10.9-7.3-17.7
		c0.9-6.7,4.4-12.8,7.5-18.8c16.8-33.5,21.9-72.7,14.3-109.3c-8.9-43-34.7-83.1-32.7-127c1.2-25.6,11.8-49.7,23.4-72.6
		c16.8-33,36.1-64.7,57.6-94.9c18.1-25.3,39-50.4,67.7-62.3c29.1-12.1,63.1-8.7,91.8,4.4c23.7,10.9,46.2,28.7,62.5,49.1
		C524.1,223.7,465.4,216.9,451.8,215.5z"/>
	<path fill="none" stroke="#DEC398" stroke-width="3" stroke-linecap="round" stroke-miterlimit="10" d="M220.4,347.4
		c-9.9,16.8-10.3,37.8-5.5,56.7c4.8,18.9,14.4,36.1,24,53.2c2.8,5,7,10.7,12.6,9.9c4.5-0.7,7.2-5.2,9.2-9.3
		c8.8-17.6,17.8-36.3,16.5-55.9c-1.1-17.1-10-32.6-14.1-49.2c-7.1-29.1,1.3-60.7,19.1-84.7c17.8-24,44.4-40.7,72.8-50
		c28.4-9.3,58.8-11.6,88.6-10.5c10.5,0.4,20.1-0.1,30.6,0c4.2,0,9.2-0.3,11.5-3.8c3.2-4.7-0.9-10.9-5-14.9
		C459,167.6,429.6,154,399.1,152s-61.7,8-84.8,28c-18.2,15.8-30.9,36.9-43.2,57.6C250.8,271.8,240.6,313,220.4,347.4z"/>
	<path fill="none" stroke="#DEC398" stroke-width="1.5" stroke-linecap="round" stroke-miterlimit="10" d="M231.7,394.6
		c0.1,8.9,2.5,18.1,8.6,24.7c1.9,2.1,4.2,3.9,7,4.8c2.7,0.9,5.9,0.7,8.2-1c3.3-2.4,4.2-6.9,4.4-10.9c0.8-12.1-1.6-24.5-6.7-35.5
		c-1.5-3.2-3.3-6.4-6.2-8.3C232.6,358.9,231.7,387.1,231.7,394.6z"/>
	<path fill="none" stroke="#DEC398" stroke-width="1.5" stroke-linecap="round" stroke-miterlimit="10" d="M374.3,168.1
		c20.1-4.6,41.8-1.7,60.1,7.9c2.8,1.5,5.6,3.2,7.5,5.7c1.9,2.5,2.7,6.1,1.3,9c-2.2,4.3-8.1,4.8-13,4.9c-29.7,0.1-59.3,3.1-88.4,8.9
		c-4.7,0.9-16.6,4.1-16.8-3.3c-0.2-5.3,8.8-11.7,12.3-14.6C348,177.6,360.8,171.2,374.3,168.1z"/>
	<path fill="none" stroke="#DEC398" stroke-width="1.5" stroke-linecap="round" stroke-miterlimit="10" d="M589.9,361.5
		c12.6,23.9,26.5,47.6,33,73.9c1.5,6.2,2.7,12.7,6.3,18.1c3.5,5.3,10.3,9.2,16.4,7.1c7.5-2.6,9.7-11.9,12-19.5c6-19.4,20-35,31-52.1
		c11-17,19.2-38.5,11.8-57.3c-5.1-13.1-16.8-22.3-24.8-33.8c-7.5-10.7-11.9-23.4-20.4-33.3c-14.7-17.2-38.6-22.8-61-26.5
		c-8.7-1.4-17.6-2.8-26.3-1.6c-11.6,1.6-23.7,8.4-26,20.8c-2.1,11.4,5.9,14.6,10.8,23.2C566.8,306.1,576,335.3,589.9,361.5z"/>
	<path fill="none" stroke="#DEC398" stroke-width="1.5" stroke-linecap="round" stroke-miterlimit="10" d="M601.2,335.3
		c10,16.3,18.8,33.4,26.1,51.1c1.8,4.3,3.5,8.7,6.4,12.3s7.2,6.4,11.9,6.3c7.8-0.2,12.9-8,16.7-14.9c7.4-13.7,15.1-28.5,13.9-44.1
		c-1-12.2-7.3-23.2-13-34c-6.4-12-12.2-24.5-20.8-35c-8.6-10.5-20.6-19.1-34.1-20.3c-14.5-1.3-33.5,8.8-31.7,25.2
		C578.6,301.8,591.1,318.9,601.2,335.3z"/>
	<path fill="none" stroke="#DEC398" stroke-width="3" stroke-linecap="round" stroke-miterlimit="10" d="M749.8,1000
		c-3-59.9-43.9-116.9-100.4-137.7c-9.1-3.3-19.8-7.1-22.5-16.4c-1.9-6.6,1.2-13.6,5.8-18.7c4.5-5.1,10.4-8.8,15.6-13.3
		c22.1-19.3,27.9-51.9,24.2-81c-3.7-29.1-15.4-56.5-23-84.9c-7.6-28.4-10.8-59.7,1.9-86.1c4.2-8.8,12.6-17.8,22.1-15.6
		c8,1.9,12,10.7,14.6,18.4c18.6,56.8,21.2,120.6,55.8,169.4c31.1,44,86.4,68.8,140.1,65.7c43.5-2.6,85.2-22.8,115.9-53.9"/>
	<path fill="none" stroke="#DEC398" stroke-width="1.5" stroke-linecap="round" stroke-miterlimit="10" d="M1000,547.2
		c-10.6,6.2-20.7,13.1-28.8,22.2c-10.9,12.3-17.6,29.7-13,45.5c3.4,11.8,12.4,21,20.2,30.5c8.4,10.3,15.7,21.6,21.7,33.5"/>
	<path fill="none" stroke="#DEC398" stroke-width="1.5" stroke-linecap="round" stroke-miterlimit="10" d="M1000,639.5
		c-3.5-3.4-6.7-7-9.4-11c-5.7-8.3-9.1-18.7-6.9-28.6c1.6-7.3,6.2-13.7,11.7-18.8c1.5-1.4,3-2.6,4.6-3.9"/>
	<path fill="none" stroke="#DEC398" stroke-width="1.5" stroke-linecap="round" stroke-miterlimit="10" d="M980,1000
		c-2.5-8.8-3.6-18.2-3.8-27.4c-0.4-11.8,0.7-24.4,7.5-34.1c3.8-5.4,9.9-9.4,16.3-10.7"/>
	<path fill="none" stroke="#DEC398" stroke-width="1.5" stroke-linecap="round" stroke-miterlimit="10" d="M900.4,1000
		c-8.2-10.5-16.5-21.1-24.8-31.6c-2.3-3-4.7-6.1-5.2-9.9c-0.7-5.7,3.3-10.7,7-15c19.4-22.4,38.8-44.8,58.1-67.2
		c2.7-3.1,5.5-6.3,9.1-8.2c6.8-3.6,15-2.1,22.5-0.6c9.2,1.9,19.5,4.6,24.3,12.7c5.5,9.5,0.5,21.9-7.3,29.7
		c-7.8,7.8-17.9,12.7-25.9,20.2c-12.6,11.9-18.9,30.1-16.7,47.3c1,7.9,3.7,15.6,7.8,22.5"/>
	<path fill="none" stroke="#DEC398" stroke-width="3" stroke-linecap="round" stroke-miterlimit="10" d="M844.5,1000
		c-1.5-1.9-3-3.8-4.5-5.8c-7.2-9.5-13.9-20.4-13.9-32.3c0-14.5,9.8-27.2,21-36.5c11.2-9.2,24.2-16.3,34.4-26.5
		c10.3-10.2,17.3-23.2,25.9-34.9c8.6-11.7,19.7-22.6,33.8-25.9c19.6-4.5,38.9,6.8,58.7,10.2"/>
	<path fill="none" stroke="#DEC398" stroke-width="1.5" stroke-linecap="round" stroke-miterlimit="10" d="M809.8,1000
		c-7.2-12.6-12.2-26.4-14-40.8c-3.2-24.3,3.1-50.1,18.8-68.8c13.2-15.7,31.7-25.6,48.4-37.5c12.1-8.6,23.4-18.4,36-26.3
		c12.6-7.8,27-13.8,41.9-13.5c20.5,0.4,39.3,12.4,59,17.4"/>
	<path fill="none" stroke="#DEC398" stroke-width="1.5" stroke-linecap="round" stroke-miterlimit="10" d="M660.5,841.3
		c0,6.6,4,12.7,9,17c5,4.3,11,7.2,16.8,10.4c19.1,10.6,36.2,24.8,50.2,41.6c4.7,5.7,9.2,11.8,15.6,15.5s15.4,4.2,20.5-1.1
		c4.2-4.3,4.7-11,6-16.9c3.8-16.3,16-29.2,29.1-39.6c13.1-10.3,27.7-18.9,39.4-30.9c2.6-2.7,5.1-5.7,5.6-9.4
		c0.8-5.7-3.9-11-9.2-13.2c-5.3-2.2-11.3-2-17.1-2.2c-37.7-1.4-74.2-21.2-96.1-51.9c-3.3-4.6-6.4-9.6-10.7-13.2
		c-4.4-3.6-10.5-5.8-15.9-3.7c-6.7,2.6-9.5,10.4-11.5,17.3c-4.7,16.3-9.5,32.7-14.2,49c-2,6.8-3.1,12.8-7.5,17.4
		C665.8,832.3,660.5,832.8,660.5,841.3z"/>
	<path fill="none" stroke="#DEC398" stroke-width="1.5" stroke-linecap="round" stroke-miterlimit="10" d="M700.3,835.9
		c-1.2,7.9,1.7,15.9,6.2,22.4c4.5,6.5,10.6,11.8,16.6,17c8.6,7.5,19.1,15.4,30.3,13c6.5-1.4,11.6-6.2,16.4-10.7
		c8.9-8.4,17.8-16.9,26.7-25.3c3-2.9,6.2-6.1,6.8-10.2c1.1-8.3-8.3-13.6-16.1-16.5c-19.1-7-41.3-19.6-61.5-22.3
		C711.5,801.4,701.8,824,700.3,835.9z"/>
	<path fill="none" stroke="#DEC398" stroke-width="1.5" stroke-linecap="round" stroke-miterlimit="10" d="M774.4,846.4
		c0.7,4-3.1,7.4-6.5,9.6c-5.6,3.6-11.5,6.8-18,8.3c-6.5,1.5-13.5,1.3-19.4-1.6c-4.4-2.2-8.2-6.2-8.8-11.1
		C719.3,829.8,771.2,827.8,774.4,846.4z"/>
	<path fill="none" stroke="#DEC398" stroke-width="1.5" stroke-linecap="round" stroke-miterlimit="10" d="M606.6,282
		c13.9-2.7,28.1,6.2,35.2,18.4s8.4,27,7.8,41.1c-0.1,3.6-0.4,7.4-2.2,10.6c-1.8,3.2-5.6,5.5-9.1,4.5c-3.8-1.1-5.6-5.5-6.3-9.5
		c-1.5-8.5-0.4-17.3-1.8-25.8c-1.4-8.5-6.6-17.4-15-19.1c-6.1-1.2-16.6,1.5-19.9-5.8C591.9,289.1,600.6,283.2,606.6,282z"/>
	<path fill="none" stroke="#DEC398" stroke-width="1.5" stroke-linecap="round" stroke-miterlimit="10" d="M0,343.3
		c14.2-6.4,26.2-18.1,36.8-29.9c14.2-15.9,28.1-33.3,47.7-41.7c17.2-7.4,36.8-7,54.5-12.9c27.9-9.3,48.6-33.7,60.7-60.4
		c13-28.8,19.6-63.6,45.7-81.3c15.2-10.3,34.4-12.6,51-20.5c14.9-7.1,27.3-18.6,41.2-27.4C367.7,50.3,405,42.5,439.4,51
		c23.8-2.4,50.8-3.7,68.2,12.7c16.5,15.5,17.7,41,27.3,61.5c11.3,24.4,34.2,41.2,57,55.3c34.4,21.3,71,39.2,108.9,53.2
		c21.9,8.1,46.7,17,56.2,38.3c5.5,12.4,4.5,26.7,2.4,40.2c-6.2,38.8-21.1,76.1-43.3,108.5c-7.5,10.9-16.2,23.1-13.4,36.1
		c3,13.5,17,21,26.7,30.9c19.8,20.5,20.5,51.9,25.3,80c9.7,56.7,41.3,109.4,86.8,144.6c14.3,11.1,31,20.8,49.1,20.8
		c18.1,0,37.2-13,38.3-31.1c1.1-18.1-14.5-32-24.5-47.1c-23.9-36.2-15.6-86.5,8.7-122.4c21.8-32.3,54.1-55.5,86.9-76.8"/>
	<path fill="none" stroke="#DEC398" stroke-width="1.5" stroke-linecap="round" stroke-miterlimit="10" d="M0,196.2
		c10.1,1.9,20.2,4.3,29.2,9.2c10.8,5.9,20,16.1,21.4,28.3c1.1,9.4-2.5,18.7-6.8,27.1c-10.3,19.8-25.5,37-43.8,49.8"/>
	<path fill="none" stroke="#DEC398" stroke-width="1.5" stroke-linecap="round" stroke-miterlimit="10" d="M0,214.2
		c4.6,0.2,9.1,1.3,13.2,3.4c7.1,3.6,12.6,10.5,13.8,18.4c1.6,10.4-4.2,20.4-10.7,28.7c-5,6.4-10.5,12.5-16.4,18"/>
	<path fill="none" stroke="#DEC398" stroke-width="1.5" stroke-linecap="round" stroke-miterlimit="10" d="M0,175.1
		c24.2-0.7,48.8,13.1,59.9,34.8c5.2,10.1,8.2,22.2,17.5,28.6c8.9,6.1,20.7,4.9,31.1,2.1c25.3-6.8,48.1-22.5,63.5-43.6
		c13.6-18.6,21.2-40.8,30.9-61.7c9.7-20.9,22.3-41.7,42.1-53.4c18.5-11,41.1-12.8,60.8-21.7C330.3,49,348.9,26,355.5,0"/>
	<path fill="none" stroke="#DEC398" stroke-width="1.5" stroke-linecap="round" stroke-miterlimit="10" d="M1000,299.6
		c-24.7,6.4-50.2,10.1-75.4,6.6c-29-4-57.5-18.5-73-43.2c-3.4-5.5-7.2-12.1-13.6-12.7c-4.5-0.5-8.7,2.4-11.3,6.1
		c-2.5,3.7-3.7,8.1-5,12.4c-9.9,34.9-24.8,68.4-44.3,99c-8.5,13.4-21,22.9-27.7,37.6c-6.4,14.1-8.4,30.2-4.8,45.3
		c4.7,19.7,17.6,36.3,24.3,55.4c13.1,37.1,1.9,79.8,16.5,116.3c7.8,19.5,22.6,35.7,39.4,48.4c16.8,12.7,35.8,22.2,54.6,31.7
		c6.4,3.2,14.8,6.2,20.2,1.5c5.9-5.3,2.7-14.9-1-21.8c-11.6-21.7-24.6-43.3-29.2-67.5c-7.7-40.7,10.3-82.8,37.8-113.8
		c25.8-29,59.1-50,92.5-70.1"/>
	<path fill="none" stroke="#DEC398" stroke-width="1.5" stroke-linecap="round" stroke-miterlimit="10" d="M1000,380.8
		c-21.8,20-52.9,29.4-82.1,24.4c-12.8-2.2-26.9-6.7-38.1-0.1c-11.4,6.6-14.2,21.5-15.9,34.5c-2.1,16.3-4.2,32.6-6.2,48.9
		c-7.1,56.8-13.3,116.4,7.6,169.8c1.4,3.5,2.8,7.9,0.3,10.8c-2.4,2.8-6.8,2.3-10.4,1.2c-24.3-7.5-42.8-28.4-52.5-51.9
		c-9.8-23.5-12-49.4-12.4-74.8c-0.4-25.4,0.7-51-2.8-76.2c-2-14.5-5.6-29-4.6-43.7c1.3-17.9,9.5-34.6,17.5-50.7
		c7.8-15.7,15.6-31.4,23.4-47.1c3.7-7.5,7.9-15.5,15.3-19.5c11.8-6.4,26.1-0.2,38.1,5.9c20.6,10.5,41.7,20.9,64.5,24.9
		c19.8,3.4,41.3,1.4,58.4-8.8"/>
	<path fill="none" stroke="#DEC398" stroke-width="1.5" stroke-linecap="round" stroke-miterlimit="10" d="M949.7,424.6
		c5.9-0.5,13.6-0.1,15.4,5.5c0.9,2.9-0.3,6.2-2.4,8.4c-2.1,2.2-4.9,3.7-7.6,5.1c-26.4,13.8-51.4,30.4-74.4,49.4
		c-2.7,2.2-6.4,4.6-9.3,2.7c-2.7-1.7-2.5-5.6-1.9-8.7c3.5-19.3,10.8-41.6,23-57.4c5.3-6.9,11.9-5.5,19.9-4.9
		C924.8,425.7,937.3,425.6,949.7,424.6z"/>
	<path fill="none" stroke="#DEC398" stroke-width="3" stroke-linecap="round" stroke-miterlimit="10" d="M884.3,337
		c-12.5-3.1-26.9-1.3-36,7.7c-8.4,8.4-10.7,21-15.7,31.8c-5.7,12.2-15.1,22.2-21,34.3c-10.1,20.4-9.2,44.3-8,67.1
		c1.5,29.7,2.9,59.4,4.4,89c0.5,10.9,1.1,21.9,4.5,32.3c1.8,5.4,5.5,11.4,11.2,11.5c3.8,0.1,7.2-2.6,9.1-5.9
		c1.9-3.3,2.4-7.2,2.9-10.9c6.9-53.7,0.9-108.4,8.3-162c1.9-13.6,5.1-28.1,15.1-37.6c13.9-13.2,35.6-12.4,54.5-9.6
		s39.6,6.3,56.1-3.5c6.4-3.8,12.1-11.3,9.3-18.2c-2.7-6.6-11.1-8.2-18.2-8.8c-12.8-1.2-25.8-1.2-38.5-3.2
		C909.6,349,896.8,340.1,884.3,337z"/>
	<path fill="none" stroke="#DEC398" stroke-width="1.5" stroke-linecap="round" stroke-miterlimit="10" d="M407.9,0
		c5.7,12.5,19,21.6,32.8,24.8c17.3,4,35.4,0.7,52.9-2.2c17.5-3,35.8-5.6,52.8-0.5c17,5.1,32.4,20.2,31.8,38
		c-0.5,16.7-14.4,30.7-15.2,47.4c-0.8,17.2,12.6,32.1,27.8,40.2c15.2,8.1,32.4,11.5,48.2,18.4c23,10.1,42,27.2,62.7,41.4
		c20.7,14.2,45,26.1,69.9,23c24.3-3,47.7-19.8,71.2-12.8c28.5,8.4,40,47.5,68.9,54c21.7,4.9,42.7-11.4,55.6-29.6
		c11.3-16,19.5-34.4,32.8-48.5"/>
	<path fill="none" stroke="#DEC398" stroke-width="1.5" stroke-linecap="round" stroke-miterlimit="10" d="M567.7,0
		c6.8,4.7,13.1,9.8,18.6,15.8c9.4,10.4,15.9,24.3,14.4,38.3c-2.1,18.8-18.3,35.6-14.5,54.2c2.6,12.6,14,21.7,26,26.5
		c12,4.8,25,6.4,37.2,10.5c21.5,7.3,39.5,22.2,58,35.4c18.5,13.2,39.4,25.2,62.2,25.4c22.5,0.2,43.6-11.4,66.1-13.6
		c18.9-1.8,38.4,3.4,53.9,14.3c6.3,4.4,11.9,9.8,18.6,13.6c6.7,3.8,14.9,5.9,22.1,3.3c6.8-2.5,11.5-8.6,15.8-14.4
		c18-24.5,36-49,54-73.4"/>
	<path fill="none" stroke="#DEC398" stroke-width="3" stroke-linecap="round" stroke-miterlimit="10" d="M867.2,0
		c1.8,14.2,8.4,28.8,10.1,43.4c2.1,18.2-3.7,36.4-9.5,53.8c-7.4,22.5-15.4,45.9-32.2,62.6c-20.3,20.4-52.5,27.6-79.9,18.8
		c-18.5-6-34.1-18.4-50.8-28.3c-19.7-11.8-41.2-20.4-63.6-25.5c-13-2.9-28.4-6.3-33.5-18.6c-5.3-12.9,4.3-26.5,9.6-39.4
		c9-21.8,4.9-48.3-9.6-66.7"/>
	<path fill="none" stroke="#DEC398" stroke-width="1.5" stroke-linecap="round" stroke-miterlimit="10" d="M847.9,0
		c4.6,20.1,8.5,40.4,8.6,60.9c0.1,25.6-6.2,52.1-22.4,71.9c-16.2,19.8-43.6,31.5-68.3,24.7c-18.2-5-32.4-18.6-48.1-29
		c-16.8-11-35.9-18.5-55.8-21.9c-5.7-1-11.5-1.6-16.9-3.8c-5.3-2.2-10.3-6.2-12-11.7c-2.3-7.7,2.2-15.6,5.5-23
		c9.7-21.4,9.4-46.9-0.3-68.2"/>
	<path fill="none" stroke="#DEC398" stroke-width="1.5" stroke-linecap="round" stroke-miterlimit="10" d="M823.4,0
		c9.4,31.8,9.7,66.2,0.8,98.1c-3.3,11.8-8.3,23.9-18.1,31.2c-12,8.8-28.8,8.4-42.7,3c-13.9-5.4-25.7-15-37.6-23.9
		c-11.9-8.9-24.8-17.5-39.4-20.2c-8.9-1.7-19.7-1.9-24.7-9.6c-4.6-7.1-1.3-16.4,1-24.5c5.1-17.6,5.1-36.6,0.2-54.2"/>
	<path fill="none" stroke="#DEC398" stroke-width="1.5" stroke-linecap="round" stroke-miterlimit="10" d="M800.3,0
		c6.5,23.7,8.3,48.7,5.1,73c-1.1,8.3-2.8,16.7-7.1,23.9c-4.3,7.2-11.8,12.9-20.1,13.3c-9.2,0.4-17.5-5.4-24.1-11.9
		c-6.6-6.4-12.6-13.9-20.8-18c-13.3-6.7-31.9-4.6-40.3-16.8c-3.7-5.3-4.3-12-4.8-18.4c-1.3-15-2.5-30.1-3.8-45.1"/>
	<path fill="none" stroke="#DEC398" stroke-width="1.5" stroke-linecap="round" stroke-miterlimit="10" d="M773.9,0
		c3,14.7,5.3,29.6,6.9,44.5c0.7,6.8,0.9,14.7-4.2,19.3c-4.4,4-11.3,3.9-16.9,2c-5.6-1.9-10.7-5.3-16.3-7.2
		c-9.1-3.1-19.3-2.3-27.8-6.8c-8.8-4.7-14-14.6-15.6-24.5c-1.5-9-0.4-18.2,0.9-27.3"/>
	<path fill="none" stroke="#DEC398" stroke-width="1.5" stroke-linecap="round" stroke-miterlimit="10" d="M757.5,0
		c1.9,6.2,2.2,13,2.6,19.6c0.3,6.9,0.2,15-5.2,19.4c-4.9,4-12.5,3.1-17.6-0.7c-5.1-3.7-8.2-9.6-10.6-15.4c-3-7.4-5.3-15-6.7-22.9"/>
	<path fill="none" stroke="#DEC398" stroke-width="3" stroke-linecap="round" stroke-miterlimit="10" d="M887.3,0
		c3.7,20.8,7,41.8,7.1,63c0.1,24.6-4.4,49.7-16.8,70.9c-4.4,7.6-10,15.4-9.5,24.2c0.7,11.3,11,19.2,20.4,25.6
		c8,5.4,16.9,11,26.4,9.9c10.2-1.2,17.8-9.8,24.5-17.5c18.8-21.7,39.1-42.1,60.7-61"/>
	<path fill="none" stroke="#DEC398" stroke-width="1.5" stroke-linecap="round" stroke-miterlimit="10" d="M908.7,0
		c9.1,40.6,5.3,84-10.8,122.4c-3.3,8-7.2,15.9-7.8,24.6c-0.5,8.6,3.4,18.2,11.4,21.3c5.9,2.3,12.8,0.5,18.1-2.9
		c5.3-3.4,9.5-8.4,13.7-13.1c19.2-21.6,41.8-40.2,66.5-55.2"/>
	<path fill="none" stroke="#DEC398" stroke-width="1.5" stroke-linecap="round" stroke-miterlimit="10" d="M933.3,0
		c-2.9,30.9-5.9,61.9-8.8,92.8c-0.5,5.5-0.8,11.8,2.9,15.9c3.3,3.6,8.8,4.3,13.4,3.1c4.7-1.2,8.7-4.1,12.6-6.9
		c15.5-11.1,31-22.1,46.5-33.2"/>
	<path fill="none" stroke="#DEC398" stroke-width="1.5" stroke-linecap="round" stroke-miterlimit="10" d="M950.5,0
		c0,16.7-2.3,33.4-6.8,49.5c-1.5,5.5-3.2,11.8-0.1,16.6c3,4.5,9.2,5.5,14.6,5c9.3-1,17.9-5.5,25.2-11.4c6.2-5,11.5-10.9,16.6-17"/>
	<path fill="none" stroke="#DEC398" stroke-width="1.5" stroke-linecap="round" stroke-miterlimit="10" d="M968.6,0
		c-1,9.8-2,19.6-3,29.3c-0.5,4.4-0.6,9.6,2.8,12.5c4,3.5,10.3,1.3,14.8-1.5c6.3-3.9,12-8.7,16.9-14.2"/>
	<path fill="none" stroke="#DEC398" stroke-width="1.5" stroke-linecap="round" stroke-miterlimit="10" d="M1000,284.9
		c-10.3,2.1-20.9,2.4-31.3,0.9c-3.5-0.5-7.3-1.4-9.3-4.3c-2.5-3.7-0.9-8.9,1.9-12.4c4.7-5.9,11.9-9,18.2-13.1
		c8.2-5.3,15.3-12.5,20.4-20.9"/>
	<path fill="none" stroke="#DEC398" stroke-width="3" stroke-linecap="round" stroke-miterlimit="10" d="M0,136.9
		c21.9-1.8,44.6,6.2,60.2,21.7c7.5,7.5,13.7,16.8,23.1,21.6c11,5.7,24.3,4.3,36.1,0.7c22.8-6.9,43.1-21.4,57-40.8
		c16.6-23.1,25-53.3,48.8-68.9c16.2-10.6,36.6-12.2,54.2-20.4C300,41.3,315.6,22,321.3,0"/>
	<path fill="none" stroke="#DEC398" stroke-width="1.5" stroke-linecap="round" stroke-miterlimit="10" d="M0,86.2
		c16.1-5.8,33.6-6.7,49,0c13.2,5.8,23.6,16.5,35,25.4c11.4,8.9,25.6,16.3,39.8,13.7c13.2-2.4,23.4-13,30.9-24.1
		c7.5-11.2,13.2-23.6,22.5-33.3c11.2-11.7,26.5-18.5,41.7-24.1c15.2-5.6,30.9-10.5,44.4-19.4c9.2-6.1,17.4-14.5,22-24.3"/>
	<path fill="none" stroke="#DEC398" stroke-width="3" stroke-linecap="round" stroke-miterlimit="10" d="M0,61.9
		c28.5-1,57.3,7.3,85.9,11.7c14,2.2,29.2,3.2,41.5-3.7c9.5-5.3,16-14.7,24.6-21.3c9.8-7.4,21.8-11,33.7-14c11.9-3,24-5.7,34.7-11.8
		c9.1-5.1,17-13.1,20.2-22.8"/>
	<path fill="none" stroke="#DEC398" stroke-width="1.5" stroke-linecap="round" stroke-miterlimit="10" d="M0,47.6
		c30.6-1.9,63,11.2,93.1,3.4c21.3-5.5,38.8-20.8,59.7-27.6c11.7-3.8,24.1-4.9,35.9-8.3c9.5-2.8,18.9-7.5,25.1-15.1"/>
	<path fill="none" stroke="#DEC398" stroke-width="1.5" stroke-linecap="round" stroke-miterlimit="10" d="M0,18.5
		c18.2,4.7,35.3,17.8,54.4,20.8c22,3.5,43.8-6.7,62.6-18.6c10.7-6.8,21.2-14.4,32.3-20.7"/>
	<path fill="none" stroke="#DEC398" stroke-width="1.5" stroke-linecap="round" stroke-miterlimit="10" d="M15.4,0
		c6.4,10.2,15.2,19,26.2,23.7c15.3,6.5,33.2,4.2,48.5-2.4C102.3,16,113.2,8.2,123.7,0"/>
	<path fill="none" stroke="#DEC398" stroke-width="1.5" stroke-linecap="round" stroke-miterlimit="10" d="M41.8,0
		C49.1,8.7,60.5,14.1,72,13.6C82.3,13.1,92.2,7.9,98.8,0"/>
</g>
</svg>
