<?xml version="1.0" encoding="UTF-8"?>
<svg id="Layer_1" data-name="Layer 1" xmlns="http://www.w3.org/2000/svg" version="1.1" viewBox="0 0 1000 1000">
  <defs>
    <style>
      .cls-1 {
        stroke-width: 1.5px;
      }

      .cls-1, .cls-2 {
        fill: none;
        stroke: #fcdbac;
        stroke-linecap: round;
        stroke-miterlimit: 10;
      }

      .cls-2 {
        stroke-width: 3px;
      }

      .cls-3 {
        fill: #fff1cf;
        stroke-width: 0px;
      }
    </style>
  </defs>
  <rect class="cls-3" width="1000" height="1000"/>
  <g>
    <path class="cls-1" d="M466.8,466.2c-3.5-5.3-3.6-12.9.5-17.7,2.4-2.7,5.8-4.2,9.2-5.5,5.2-1.9,10.6-3.4,16.1-3.3s11.1,2.1,14.8,6.2c8.1,9,2.9,23.7-7.6,28.3-10.3,4.5-26.7,1.6-33-8Z"/>
    <path class="cls-1" d="M518.3,498.8c-8.3,3.5-17.5,4.1-26.5,3.2-12.3-1.1-24.6-4.9-34.5-12.4s-17-19-17.6-31.3c-.7-14.9,7.9-28.8,18.2-39.6,10.3-10.8,22.6-19.7,32.1-31.3,3-3.7,5.9-7.7,9.9-10.2,4.1-2.4,9.9-2.8,13.2.7,2.6,2.8,2.8,6.9,3,10.7.9,18.3,4.9,37,12.9,53.6,6.1,12.6,10.7,23.5,6.6,37.9-2.3,8.6-9.2,15.3-17.3,18.7Z"/>
    <path class="cls-1" d="M558.7,483.4c-1.1,10.7-5.7,21.3-13.9,28.2-8.5,7.3-19.8,10.1-30.9,11.5-16.3,2.1-33.2,1.6-48.9-3.2-15.8-4.8-30.4-13.9-40.4-27-7.7-10.1-12.5-22.9-10.9-35.5,2.6-19.9,19.9-34,31.4-50.5,9.5-13.6,15.4-29.7,16.9-46.1.5-5.5.7-11.6,4.1-15.9,3.2-4,8.5-5.7,13.6-5.6s10,1.7,14.8,3.2c9.5,3.1,19.4,6.5,25.9,14.1,7,8.3,8.5,19.7,10.7,30.3,7,32.7,31.1,62.1,27.6,96.5Z"/>
    <path class="cls-2" d="M408.9,313.7c4.2-10.3,16.3-15,27.3-16.5,30.9-4.1,63.6,9.2,82.8,33.8,20.4,26.1,24.9,61.1,40.3,90.4,7.6,14.4,18.1,28.2,19.7,44.4,1.3,12.6-3,25.2-8.3,36.7-7.2,15.7-16.8,31.1-31.2,40.6-17.5,11.5-40,12.8-60.7,9.3-24.6-4.2-48.1-14.7-67.6-30.4-11-8.8-21.1-20-23.5-33.9-2.1-12.5,2.4-25.1,7-36.9,7.8-19.9,16-39.6,24.8-59.1,3.2-7,8.4-15,7.4-23.1-1.2-9-7.6-17.3-12.1-25-5-8.9-10.1-20-5.9-30.3Z"/>
    <path class="cls-1" d="M379.6,351.1c5.9,16.5,15.1,32.4,15.5,50,.6,22.2-12.9,42-24.1,61.2s-20.6,42.7-11.9,63.1c5.7,13.3,18.2,22.5,31.5,28.1s27.6,8.2,41.5,12.2c18.1,5.2,35.4,12.7,53.5,17.6,18.1,5,37.6,7.3,55.6,1.9,30.4-9.1,51.1-39.4,56.1-70.7,5-31.4-3.4-63.4-15.9-92.6s-29-56.5-41.4-85.7c-10.1-23.8-19-50.6-41.1-64.1-12.8-7.8-28.4-9.8-43.4-9.8s-30.8,2-44.8,8.1c-32.3,14.1-42.7,48.2-31.1,80.7Z"/>
    <path class="cls-1" d="M0,673.8c1.7.2,3.4.4,5,.8,3.5.9,6.8,2.7,9,5.6,2.8,3.9,3,9.4,1.2,13.8-1.8,4.5-5.5,8-9.5,10.6-1.8,1.1-3.7,2.1-5.6,3"/>
    <path class="cls-1" d="M0,661.4c3.6-.5,7.3-.8,10.9-.5,5.9.4,11.9,2.4,16,6.6,6.6,6.7,7.2,17.6,3.5,26.3-3.6,8.6-10.8,15.3-18.2,21-4,3.1-8.2,6-12.3,9.1"/>
    <path class="cls-1" d="M0,742.2c9.2-4.6,18.1-9.7,26.1-16.2,10.8-8.8,19.7-20.7,22.2-34.4,1.7-9,.4-18.7-4.4-26.5-9.5-15.4-29.7-20-43.8-31.2"/>
    <path class="cls-1" d="M0,532c10.6,5.3,23.4,5.9,35.5,7.2,14.6,1.5,30.8,5.3,38.4,17.8,4.4,7.2,5.2,16,4.6,24.4-1.3,19.9-9.2,40-4.1,59.2,4.4,16.5,18,30.7,17.4,47.8-.3,9.6-5.2,18.4-10,26.8-5.3,9.3-10.6,18.6-15.9,27.9-4.6,8-9.2,16.1-15.8,22.5s-15.6,10.9-24.7,10.1c-7.2-.6-15-6.7-13.3-13.7.8-3.3,3.3-5.7,5.8-8,11.5-10.4,23.8-20,33.2-32.4s15.5-28.1,12.3-43.3c-3.5-16.8-17.4-29.1-27.3-43.1-6.2-8.9-11-18.8-17.7-27.3-4.9-6.3-11.2-12-18.5-15"/>
    <path class="cls-1" d="M0,501c11.6,9,27.8,11.8,42.7,14.3,18,3.1,38.1,8.3,47.1,24.3,6.2,11.1,5.3,24.8,2.7,37.2-2.7,12.4-6.9,24.7-6.9,37.4,0,25.1,16.4,48,16,73.1-.2,11.5-3.9,22.6-8.3,33.3-8.4,20.5-19.4,40.5-36.3,54.8-15.6,13.3-37,21-56.9,17.3"/>
    <path class="cls-2" d="M0,464.9c20.1,14.1,41.9,25.7,64.9,34.4,10.1,3.8,20.5,7.2,29.6,13s17,14.6,18.8,25.2c2.1,12.2-3.8,24.1-6.9,36-6.8,25.8-1,52.9,3.5,79.2s7.4,54.6-4.4,78.5c-7.4,15-13,30.3-25.3,41.7-21.5,19.8-50.9,31-80.2,30.8"/>
    <path class="cls-1" d="M0,433.7c19.5.5,37.4,11.8,55.5,19.9,13.6,6.1,28,10.6,41.2,17.5,13.3,6.8,25.8,16.5,32.4,29.9,7.2,14.8,6.5,32.2,3,48.3-3.4,16.1-9.3,31.6-12,47.9-4.3,26.3.3,53.2,4.8,79.5,5.7,33-4.2,68-25.3,94-8.7,10.7-19.4,19.5-30.6,27.5-12.6,9.1-25.9,17.4-40.5,22.4-9.1,3.1-18.9,5-28.5,4.8"/>
    <path class="cls-1" d="M0,402.3c15.8-1.6,32.1,4.3,45.9,12.5,16.3,9.7,30.5,22.6,47,31.9,13.2,7.5,27.8,12.7,39,22.9,14.2,12.8,21.1,32.2,22.4,51.3,1.3,19.1-2.5,38.1-6.9,56.7-4.4,18.6-9.4,37.2-10.6,56.3-1.7,27,5.4,53.6,4.7,80.6-.8,30.6-17.1,60.4-42.4,77.6-6.3,4.3-11.7,9-17.6,13.8-7.8,6.3-15.7,12.7-24.5,17.7-17.2,9.8-37,13.6-57,14.5"/>
    <path class="cls-1" d="M0,376.4c20.3-.8,40.7,6.7,58.3,17.2,20.8,12.4,38.9,29,58.7,43.1,18.8,13.4,40,25.6,51.3,45.7,14.4,25.8,8.9,57.8.9,86.2-8.1,28.4-18.4,57.8-12.4,86.7,7.3,35.3,2.8,74.1-9.6,107.9-3.8,10.3-9.1,20.7-16.6,28.7s-16.5,14.4-25.7,20.4c-31.9,20.9-67.2,38-104.9,42.5"/>
    <path class="cls-1" d="M608.1,558.5c6.9-41.9,11.5-86.2-4.2-125.7-8.8-22.2-23.6-41.5-33.2-63.3-10.1-23.1-14.2-48.8-26.9-70.6-18.8-32.6-55.6-52.8-93.1-55.5-42.3-3.1-85.7,15.5-112.7,48.2-10.3,12.4-18.5,28.6-14.6,44.3,3.1,12.1,12.8,21.2,19.6,31.7,10.4,15.9,14.1,36,10.2,54.5-4.8,22.8-20.1,41.8-30.4,62.7-10.3,20.9-14.6,48.4.9,65.9,9.5,10.7,24.1,14.8,37.8,18.6,24,6.5,48,12.9,72,19.4,26,7,52.4,14.1,79.3,14.5,17.3.2,35.5-2.1,51.3,5.1,8.7,4,17,11,26.5,9.9,9.2-1.1,15.9-9.9,17.9-18.9,3-13.1-2.6-27.8-.4-40.8Z"/>
    <path class="cls-1" d="M142.5,1000c7.8-4.6,15.4-9.4,23.6-13.3,11.6-5.5,24.9-8.9,37.4-5.9,10,2.4,19.1,9.8,22.4,19.2"/>
    <path class="cls-1" d="M111,1000c12.8-6.8,23.7-17.5,34.7-27.3,14.7-13.1,32.4-25.7,52-24.5,11.6.7,22.2,6.2,32.5,11.5,8.2,4.3,16.8,8.9,21.7,16.8,4.3,7,4.9,15.3,4.5,23.6"/>
    <path class="cls-1" d="M56.7,1000c5.6-7.6,13.8-13.5,22.4-18,11.8-6.1,24.8-10,36.6-16.2,18.5-9.6,34.2-24.4,53.7-31.9,23.5-9,49.9-6.4,74.1-13.3,15.2-4.3,29.2-12.3,44.5-16.5,5.2-1.4,10.6-2.4,15.8-1.3,5.2,1.1,10.2,4.5,11.9,9.6,2.7,8.2-3.8,16.2-9,23.1-14,18.4-21.9,41.4-22.1,64.5"/>
    <path class="cls-2" d="M27.7,1000c-1.8-9.9-2.2-20.1,3.3-28.1,8.6-12.5,26.3-13.2,41.2-15.9,32.5-5.9,60.1-26.9,91.4-37.3,33.1-11,70.2-10.4,100.4-27.9,11.5-6.6,21.9-15.9,34.9-18.6,17.5-3.7,34.9,5.3,50.6,14,6.4,3.6,13,7.3,17.8,12.9,4.8,5.6,7.5,13.6,5,20.5-4.2,11.4-18.8,13.8-29.3,20-11.5,6.8-18.7,19.5-21.8,32.5-2.2,9.1-2.6,18.5-2.6,28"/>
    <path class="cls-1" d="M0,958c13.1-9.4,31-13.8,47.2-17.5,80.1-18.5,157.3-50,227.5-92.8,13.9-8.5,30.1-17.8,45.6-12.6,9.8,3.3,16.8,11.9,25.8,17,19.6,11.2,44.1,4.5,66.1-.9,13.6-3.4,29.8-5.5,40,4.1,9.1,8.4,9.5,23,5.2,34.6-4.4,11.6-12.5,21.2-19.2,31.6-15,23.2-22.5,51-21.6,78.6"/>
    <path class="cls-1" d="M333.5,1000c5-27,25.5-51,51.8-59.3,6.4-2,14.3-2.7,18.7,2.3,4.8,5.6,1.8,14.1-.6,21.2-3.9,11.5-5.6,23.7-5,35.8"/>
    <path class="cls-1" d="M0,937c46.2-7.8,86.8-35.9,130.9-52.4,37.4-14,83.1-10.1,111.8-37.8,10.1-9.8,20.4-19.7,32.4-27,12.1-7.3,26.3-11.9,40.3-10.2,11.5,1.5,22.1,7.1,33.4,10.1,22,5.9,45.8,1.6,66.8-7.3,12-5.1,24.5-11.7,37.4-9.4,9,1.6,16.9,7.6,22,15.3,5.1,7.6,7.6,16.7,8.6,25.8,2,17.8-1.5,36.2-9.9,52-9.1,17.1-24.2,32.3-25.4,51.7-1.2,18.7,11.6,36,27.6,45.8,4.2,2.5,8.6,4.7,13.1,6.5"/>
    <path class="cls-2" d="M0,917.3c17.3-1.9,34.1-8.6,49.8-16.4,20.4-10.2,40-22.4,61.7-29.6,38.3-12.6,83-9.3,115.1-33.6,15.4-11.6,26.1-28.4,39.8-42,13.8-13.6,33.3-24.3,51.8-19,10,2.9,18.1,9.9,27.7,13.9,18.2,7.7,39.2,3.6,58.2-1.9s38.5-12.4,58.2-9.7c18.8,2.5,32.3,22.2,37.5,40.4s2.7,37.9-3,56c-3.4,10.7-7.8,21.1-10.5,31.9-2.8,10.9-3.9,22.5-.5,33.2,5.5,17.5,23.7,30.4,39.9,37.5,10.8,4.7,25.6,4.8,37.2,5.7,13.2,1.1,26.4,1.2,39.6.6,9.6-.5,19.6-1.4,28.5,2.1,6.2,2.4,11.6,7.5,13.8,13.5"/>
    <path class="cls-1" d="M665.4,1000c-1.9-10.3-11.2-19.6-21.6-23.2-13.7-4.8-28.6-2.9-43.1-3-23.3,0-46.7-5.2-67.9-15-12.6-5.8-25.2-14.1-30.3-27-6.6-16.6,1-35,6.6-52.1,8.9-27.5,12.1-58,1.6-84.9s-37.5-48.5-66.3-46.4c-24.8,1.8-47.9,20-72.2,15-23.3-4.8-41.5-30.2-64.9-25.9-10.6,1.9-19,9.8-26.2,17.8-7.1,8-13.9,16.8-23.4,21.9-11.7,6.3-36.2,5.1-31.7-13.7,1.3-5.3,4.5-9.9,7.7-14.3,14-19.3,28.4-38.4,45.9-54.5s38.3-29.3,61.4-34.7c9.2-2.2,19.2-3,27.9.6,7.2,2.9,12.9,8.6,19.6,12.4,13.1,7.5,29.2,7.6,44.2,6.2,15.1-1.3,30.4-3.8,45.2-.7,18.2,3.9,34,16.2,44.6,31.5s16.5,33.5,19.8,51.9c5.2,28.8.8,59.1-5.3,87.7-2.7,12.7-6.2,25.3-7,38.3s1.3,26.6,8.7,37.2c10.2,14.5,28.6,21,46.2,22,17.6.9,35.1-2.9,52.7-5,11.7-1.4,24.3-1.9,34.6,3.8,11.4,6.2,18,18.8,20.1,31.6,1.2,7.4,1.2,14.9.5,22.5"/>
    <path class="cls-2" d="M717.5,1000c.5-22.2-7.6-44.5-22.4-61-17.8-19.7-44.9-30.6-71.4-28.6-12.7,1-25.1,4.7-37.8,4.8-12.7.2-26.6-4.2-33-15.2-6.6-11.5-3-25.8,1-38.4,9.6-30.1,20.8-60.1,24.1-91.6,3.3-31.4-2.1-65.3-22.5-89.5-28.1-33.4-75.9-40.5-119.2-45.3-31.7-3.5-64-7-95.3-.7-35.6,7.2-68.5,27.4-91,56-6.8,8.7-15.1,16.5-25.1,21.3-9.9,4.8-22.6,5.5-31.4-1.3-5.7-4.4-9-11.3-10.5-18.4-1.6-7-1.7-14.3-2.2-21.5-.6-7.8-1.7-15.5-3.4-23.2-1.4-6.3-4.6-11.5-4.4-18,.2-15.7,6.4-30.6,11-45.4,6.7-21.5,10.4-43.9,11.1-66.3.9-30.4-18.1-57.3-37.8-80.5-19.7-23.3-44.9-41.5-72.3-54.8-7.4-3.6-15.8-7.6-18.3-15.5-2.5-7.6,2-16.1,8.6-20.9,6.5-4.7,14.6-6.4,22.5-8.1,30.2-6.3,44.5-39.8,65.8-62.2,14.1-14.8,31.4-26.5,44-42.6,12.9-16.4,20.1-36.4,28.7-55.4,8.6-19,19.5-38,37-49.3,17.9-11.6,40.4-13.6,59.5-23,10.5-5.2,19.9-12.5,30.1-18.2,10.3-5.7,22.2-9.7,33.7-7.5,24,4.7,49.7-2.2,72.3,7.3,16.6,7,26.6,23.7,35.4,39.4,15.3,27.5,31.3,56.6,58,73.3,14.5,9.1,31.2,13.9,47.6,18.7,16.4,4.8,33.1,9.9,47.3,19.4s25.9,24.3,27.5,41.3c29.6,22.6,39.1,65.3,26.9,100.5-6.7,19.1-19.6,35.4-27.5,54.1s-9.5,42.6,4.6,57.1c8.1,8.3,19.8,12,28.6,19.5,12.9,11,17.8,28.6,22.1,45,9.3,36.6,18.7,73.7,35.8,107.4s43,64.3,77.6,79.8c21.2,9.5,46.4,12.7,67.7,3.5,21.4-9.2,37.1-33,32.4-55.8-4.8-23.3-27.5-38.4-38.3-59.6-15-29.2-4.7-66.3,16.2-91.6,18.4-22.2,43.6-37.3,69-51.1"/>
    <path class="cls-1" d="M0,870.3c27.4-6,54.7-13.1,80.3-24.8,27.5-12.5,53-30.5,70.6-55.1,5.9-8.2,11.9-17.9,21.8-20.2,10.4-2.4,20.6,4.5,28,12,7.9,8,14.8,18.5,13.2,29.6-1,6.9-5.3,13-10.7,17.4s-12,7.2-18.6,9.5c-28.9,10.1-60.2,11-89.8,18.8C61.6,866.3,31.4,883.7,0,898"/>
    <path class="cls-1" d="M731.3,1000c.5-28.5-10.6-57.2-30.6-77.5-24.1-24.5-60.5-36.2-94.4-30.3-7.8,1.3-15.6,3.6-23.5,3.1s-16.3-4.4-19.2-11.8c-4.7-11.9,6.4-23.4,13.8-33.9,10.2-14.3,14.4-32.6,11.5-49.9-.9-5.6-2.6-11.2-1.9-16.8.7-5.6,4.5-11.4,10.1-12,11.3-1.1,15.1,17,26.1,19.7,6.8,1.7,13.8-3.8,16.3-10.3,2.5-6.6,1.8-13.9,1-20.9-5.7-51-11.5-102-17.2-153.1-2.3-20.2-4.5-41.1,2.2-60.3s24.9-35.9,45.1-33.9c12.6,1.3,23.7,9.6,31.1,19.9,7.4,10.3,11.5,22.6,15.3,34.7,9.4,30.7,16.6,62.1,27.9,92.2,11.3,30.1,27.2,59.2,51.1,80.6,23.7,21.2,54.7,33.9,86.5,35.4,24.6,1.2,50.3-4.7,69.3-20.3s30.1-42,23.7-65.7c-8.3-31-42.4-50.8-48.1-82.3-3.9-21.3,6.6-43.1,22.1-58.3,14.3-14.1,32.5-23.5,50.6-32.4"/>
    <path class="cls-1" d="M497,235.4c-28.6-7.8-58.6-11.5-87.9-7s-57.7,17.8-77.3,39.9c-19.6,22.2-29.5,53.6-22.4,82.4,4.3,17.5,14.5,33.9,14.5,51.9s-13.9,39.5-21.6,59.3c-17.3,44.4-2.6,95.7-16.6,141.2-9.8,31.8-34.1,58.9-64.7,72.1-6.2,2.7-13.5,4.8-19.6,1.7s-8.8-10.3-9.9-17c-8.2-46.1,28.3-89.9,25.9-136.7-1.9-37.3-28-68.8-38.1-104.8-10.3-36.7-3.2-76.5,12.1-111.4s38.3-65.8,61.1-96.3c13.9-18.7,19.1-40.9,37.4-55.3s40-23.8,61.4-33.1c12.8-5.6,25.9-11.2,39.8-12.6,16.9-1.7,33.9,2.9,49.4,9.8,31.9,14.3,59.3,38.6,77.1,68.6,5.4,9.1,10.1,19.5,8.1,29.9-2.3,11.3-17.8,20.4-28.7,17.4Z"/>
    <path class="cls-1" d="M451.8,215.5c-43.4-4.6-89.6,1.3-125.7,26-36.1,24.7-59,71-47.9,113.2,4.8,18.1,15.5,35,15.8,53.8.3,17.9-8.8,34.4-14.3,51.4-9.4,28.7-8.7,59.6-10.7,89.7-2.1,30.1-7.6,61.7-26.9,84.9-6.2,7.5-16.5,14.4-25.2,9.8-6-3.2-8.3-10.9-7.3-17.7.9-6.7,4.4-12.8,7.5-18.8,16.8-33.5,21.9-72.7,14.3-109.3-8.9-43-34.7-83.1-32.7-127,1.2-25.6,11.8-49.7,23.4-72.6,16.8-33,36.1-64.7,57.6-94.9,18.1-25.3,39-50.4,67.7-62.3,29.1-12.1,63.1-8.7,91.8,4.4,23.7,10.9,46.2,28.7,62.5,49.1,22.4,28.5-36.3,21.7-49.9,20.3Z"/>
    <path class="cls-2" d="M220.4,347.4c-9.9,16.8-10.3,37.8-5.5,56.7,4.8,18.9,14.4,36.1,24,53.2,2.8,5,7,10.7,12.6,9.9,4.5-.7,7.2-5.2,9.2-9.3,8.8-17.6,17.8-36.3,16.5-55.9-1.1-17.1-10-32.6-14.1-49.2-7.1-29.1,1.3-60.7,19.1-84.7,17.8-24,44.4-40.7,72.8-50s58.8-11.6,88.6-10.5c10.5.4,20.1-.1,30.6,0,4.2,0,9.2-.3,11.5-3.8,3.2-4.7-.9-10.9-5-14.9-21.7-21.3-51.1-34.9-81.6-36.9s-61.7,8-84.8,28c-18.2,15.8-30.9,36.9-43.2,57.6-20.3,34.2-30.5,75.4-50.7,109.8Z"/>
    <path class="cls-1" d="M231.7,394.6c.1,8.9,2.5,18.1,8.6,24.7,1.9,2.1,4.2,3.9,7,4.8,2.7.9,5.9.7,8.2-1,3.3-2.4,4.2-6.9,4.4-10.9.8-12.1-1.6-24.5-6.7-35.5-1.5-3.2-3.3-6.4-6.2-8.3-14.4-9.5-15.3,18.7-15.3,26.2Z"/>
    <path class="cls-1" d="M374.3,168.1c20.1-4.6,41.8-1.7,60.1,7.9,2.8,1.5,5.6,3.2,7.5,5.7s2.7,6.1,1.3,9c-2.2,4.3-8.1,4.8-13,4.9-29.7.1-59.3,3.1-88.4,8.9-4.7.9-16.6,4.1-16.8-3.3-.2-5.3,8.8-11.7,12.3-14.6,10.7-9,23.5-15.4,37-18.5Z"/>
    <path class="cls-1" d="M589.9,361.5c12.6,23.9,26.5,47.6,33,73.9,1.5,6.2,2.7,12.7,6.3,18.1,3.5,5.3,10.3,9.2,16.4,7.1,7.5-2.6,9.7-11.9,12-19.5,6-19.4,20-35,31-52.1,11-17,19.2-38.5,11.8-57.3-5.1-13.1-16.8-22.3-24.8-33.8-7.5-10.7-11.9-23.4-20.4-33.3-14.7-17.2-38.6-22.8-61-26.5-8.7-1.4-17.6-2.8-26.3-1.6-11.6,1.6-23.7,8.4-26,20.8-2.1,11.4,5.9,14.6,10.8,23.2,14.1,25.6,23.3,54.8,37.2,81Z"/>
    <path class="cls-1" d="M601.2,335.3c10,16.3,18.8,33.4,26.1,51.1,1.8,4.3,3.5,8.7,6.4,12.3s7.2,6.4,11.9,6.3c7.8-.2,12.9-8,16.7-14.9,7.4-13.7,15.1-28.5,13.9-44.1-1-12.2-7.3-23.2-13-34-6.4-12-12.2-24.5-20.8-35s-20.6-19.1-34.1-20.3c-14.5-1.3-33.5,8.8-31.7,25.2,2,19.9,14.5,37,24.6,53.4Z"/>
    <path class="cls-2" d="M749.8,1000c-3-59.9-43.9-116.9-100.4-137.7-9.1-3.3-19.8-7.1-22.5-16.4-1.9-6.6,1.2-13.6,5.8-18.7,4.5-5.1,10.4-8.8,15.6-13.3,22.1-19.3,27.9-51.9,24.2-81s-15.4-56.5-23-84.9-10.8-59.7,1.9-86.1c4.2-8.8,12.6-17.8,22.1-15.6,8,1.9,12,10.7,14.6,18.4,18.6,56.8,21.2,120.6,55.8,169.4,31.1,44,86.4,68.8,140.1,65.7,43.5-2.6,85.2-22.8,115.9-53.9"/>
    <path class="cls-1" d="M1000,547.2c-10.6,6.2-20.7,13.1-28.8,22.2-10.9,12.3-17.6,29.7-13,45.5,3.4,11.8,12.4,21,20.2,30.5,8.4,10.3,15.7,21.6,21.7,33.5"/>
    <path class="cls-1" d="M1000,639.5c-3.5-3.4-6.7-7-9.4-11-5.7-8.3-9.1-18.7-6.9-28.6,1.6-7.3,6.2-13.7,11.7-18.8,1.5-1.4,3-2.6,4.6-3.9"/>
    <path class="cls-1" d="M980,1000c-2.5-8.8-3.6-18.2-3.8-27.4-.4-11.8.7-24.4,7.5-34.1,3.8-5.4,9.9-9.4,16.3-10.7"/>
    <path class="cls-1" d="M900.4,1000c-8.2-10.5-16.5-21.1-24.8-31.6-2.3-3-4.7-6.1-5.2-9.9-.7-5.7,3.3-10.7,7-15,19.4-22.4,38.8-44.8,58.1-67.2,2.7-3.1,5.5-6.3,9.1-8.2,6.8-3.6,15-2.1,22.5-.6,9.2,1.9,19.5,4.6,24.3,12.7,5.5,9.5.5,21.9-7.3,29.7s-17.9,12.7-25.9,20.2c-12.6,11.9-18.9,30.1-16.7,47.3,1,7.9,3.7,15.6,7.8,22.5"/>
    <path class="cls-2" d="M844.5,1000c-1.5-1.9-3-3.8-4.5-5.8-7.2-9.5-13.9-20.4-13.9-32.3s9.8-27.2,21-36.5c11.2-9.2,24.2-16.3,34.4-26.5,10.3-10.2,17.3-23.2,25.9-34.9,8.6-11.7,19.7-22.6,33.8-25.9,19.6-4.5,38.9,6.8,58.7,10.2"/>
    <path class="cls-1" d="M809.8,1000c-7.2-12.6-12.2-26.4-14-40.8-3.2-24.3,3.1-50.1,18.8-68.8,13.2-15.7,31.7-25.6,48.4-37.5,12.1-8.6,23.4-18.4,36-26.3,12.6-7.8,27-13.8,41.9-13.5,20.5.4,39.3,12.4,59,17.4"/>
    <path class="cls-1" d="M660.5,841.3c0,6.6,4,12.7,9,17s11,7.2,16.8,10.4c19.1,10.6,36.2,24.8,50.2,41.6,4.7,5.7,9.2,11.8,15.6,15.5s15.4,4.2,20.5-1.1c4.2-4.3,4.7-11,6-16.9,3.8-16.3,16-29.2,29.1-39.6,13.1-10.3,27.7-18.9,39.4-30.9,2.6-2.7,5.1-5.7,5.6-9.4.8-5.7-3.9-11-9.2-13.2s-11.3-2-17.1-2.2c-37.7-1.4-74.2-21.2-96.1-51.9-3.3-4.6-6.4-9.6-10.7-13.2-4.4-3.6-10.5-5.8-15.9-3.7-6.7,2.6-9.5,10.4-11.5,17.3-4.7,16.3-9.5,32.7-14.2,49-2,6.8-3.1,12.8-7.5,17.4-4.7,4.9-10,5.4-10,13.9Z"/>
    <path class="cls-1" d="M700.3,835.9c-1.2,7.9,1.7,15.9,6.2,22.4s10.6,11.8,16.6,17c8.6,7.5,19.1,15.4,30.3,13,6.5-1.4,11.6-6.2,16.4-10.7,8.9-8.4,17.8-16.9,26.7-25.3,3-2.9,6.2-6.1,6.8-10.2,1.1-8.3-8.3-13.6-16.1-16.5-19.1-7-41.3-19.6-61.5-22.3-14.2-1.9-23.9,20.7-25.4,32.6Z"/>
    <path class="cls-1" d="M774.4,846.4c.7,4-3.1,7.4-6.5,9.6-5.6,3.6-11.5,6.8-18,8.3s-13.5,1.3-19.4-1.6c-4.4-2.2-8.2-6.2-8.8-11.1-2.4-21.8,49.5-23.8,52.7-5.2Z"/>
    <path class="cls-1" d="M606.6,282c13.9-2.7,28.1,6.2,35.2,18.4s8.4,27,7.8,41.1c0,3.6-.4,7.4-2.2,10.6s-5.6,5.5-9.1,4.5c-3.8-1.1-5.6-5.5-6.3-9.5-1.5-8.5-.4-17.3-1.8-25.8-1.4-8.5-6.6-17.4-15-19.1-6.1-1.2-16.6,1.5-19.9-5.8-3.4-7.3,5.3-13.2,11.3-14.4Z"/>
    <path class="cls-1" d="M0,343.3c14.2-6.4,26.2-18.1,36.8-29.9,14.2-15.9,28.1-33.3,47.7-41.7,17.2-7.4,36.8-7,54.5-12.9,27.9-9.3,48.6-33.7,60.7-60.4,13-28.8,19.6-63.6,45.7-81.3,15.2-10.3,34.4-12.6,51-20.5,14.9-7.1,27.3-18.6,41.2-27.4,30.1-18.9,67.4-26.7,101.8-18.2,23.8-2.4,50.8-3.7,68.2,12.7,16.5,15.5,17.7,41,27.3,61.5,11.3,24.4,34.2,41.2,57,55.3,34.4,21.3,71,39.2,108.9,53.2,21.9,8.1,46.7,17,56.2,38.3,5.5,12.4,4.5,26.7,2.4,40.2-6.2,38.8-21.1,76.1-43.3,108.5-7.5,10.9-16.2,23.1-13.4,36.1,3,13.5,17,21,26.7,30.9,19.8,20.5,20.5,51.9,25.3,80,9.7,56.7,41.3,109.4,86.8,144.6,14.3,11.1,31,20.8,49.1,20.8s37.2-13,38.3-31.1-14.5-32-24.5-47.1c-23.9-36.2-15.6-86.5,8.7-122.4,21.8-32.3,54.1-55.5,86.9-76.8"/>
    <path class="cls-1" d="M0,196.2c10.1,1.9,20.2,4.3,29.2,9.2,10.8,5.9,20,16.1,21.4,28.3,1.1,9.4-2.5,18.7-6.8,27.1-10.3,19.8-25.5,37-43.8,49.8"/>
    <path class="cls-1" d="M0,214.2c4.6.2,9.1,1.3,13.2,3.4,7.1,3.6,12.6,10.5,13.8,18.4,1.6,10.4-4.2,20.4-10.7,28.7-5,6.4-10.5,12.5-16.4,18"/>
    <path class="cls-1" d="M0,175.1c24.2-.7,48.8,13.1,59.9,34.8,5.2,10.1,8.2,22.2,17.5,28.6,8.9,6.1,20.7,4.9,31.1,2.1,25.3-6.8,48.1-22.5,63.5-43.6,13.6-18.6,21.2-40.8,30.9-61.7,9.7-20.9,22.3-41.7,42.1-53.4,18.5-11,41.1-12.8,60.8-21.7,24.5-11.2,43.1-34.2,49.7-60.2"/>
    <path class="cls-1" d="M1000,299.6c-24.7,6.4-50.2,10.1-75.4,6.6-29-4-57.5-18.5-73-43.2-3.4-5.5-7.2-12.1-13.6-12.7-4.5-.5-8.7,2.4-11.3,6.1-2.5,3.7-3.7,8.1-5,12.4-9.9,34.9-24.8,68.4-44.3,99-8.5,13.4-21,22.9-27.7,37.6-6.4,14.1-8.4,30.2-4.8,45.3,4.7,19.7,17.6,36.3,24.3,55.4,13.1,37.1,1.9,79.8,16.5,116.3,7.8,19.5,22.6,35.7,39.4,48.4,16.8,12.7,35.8,22.2,54.6,31.7,6.4,3.2,14.8,6.2,20.2,1.5,5.9-5.3,2.7-14.9-1-21.8-11.6-21.7-24.6-43.3-29.2-67.5-7.7-40.7,10.3-82.8,37.8-113.8,25.8-29,59.1-50,92.5-70.1"/>
    <path class="cls-1" d="M1000,380.8c-21.8,20-52.9,29.4-82.1,24.4-12.8-2.2-26.9-6.7-38.1-.1-11.4,6.6-14.2,21.5-15.9,34.5-2.1,16.3-4.2,32.6-6.2,48.9-7.1,56.8-13.3,116.4,7.6,169.8,1.4,3.5,2.8,7.9.3,10.8-2.4,2.8-6.8,2.3-10.4,1.2-24.3-7.5-42.8-28.4-52.5-51.9-9.8-23.5-12-49.4-12.4-74.8-.4-25.4.7-51-2.8-76.2-2-14.5-5.6-29-4.6-43.7,1.3-17.9,9.5-34.6,17.5-50.7,7.8-15.7,15.6-31.4,23.4-47.1,3.7-7.5,7.9-15.5,15.3-19.5,11.8-6.4,26.1-.2,38.1,5.9,20.6,10.5,41.7,20.9,64.5,24.9,19.8,3.4,41.3,1.4,58.4-8.8"/>
    <path class="cls-1" d="M949.7,424.6c5.9-.5,13.6-.1,15.4,5.5.9,2.9-.3,6.2-2.4,8.4-2.1,2.2-4.9,3.7-7.6,5.1-26.4,13.8-51.4,30.4-74.4,49.4-2.7,2.2-6.4,4.6-9.3,2.7-2.7-1.7-2.5-5.6-1.9-8.7,3.5-19.3,10.8-41.6,23-57.4,5.3-6.9,11.9-5.5,19.9-4.9,12.4,1,24.9.9,37.3-.1Z"/>
    <path class="cls-2" d="M884.3,337c-12.5-3.1-26.9-1.3-36,7.7-8.4,8.4-10.7,21-15.7,31.8-5.7,12.2-15.1,22.2-21,34.3-10.1,20.4-9.2,44.3-8,67.1,1.5,29.7,2.9,59.4,4.4,89,.5,10.9,1.1,21.9,4.5,32.3,1.8,5.4,5.5,11.4,11.2,11.5,3.8,0,7.2-2.6,9.1-5.9,1.9-3.3,2.4-7.2,2.9-10.9,6.9-53.7.9-108.4,8.3-162,1.9-13.6,5.1-28.1,15.1-37.6,13.9-13.2,35.6-12.4,54.5-9.6s39.6,6.3,56.1-3.5c6.4-3.8,12.1-11.3,9.3-18.2-2.7-6.6-11.1-8.2-18.2-8.8-12.8-1.2-25.8-1.2-38.5-3.2-12.7-2-25.5-10.9-38-14Z"/>
    <path class="cls-1" d="M407.9,0c5.7,12.5,19,21.6,32.8,24.8,17.3,4,35.4.7,52.9-2.2,17.5-3,35.8-5.6,52.8-.5s32.4,20.2,31.8,38c-.5,16.7-14.4,30.7-15.2,47.4-.8,17.2,12.6,32.1,27.8,40.2,15.2,8.1,32.4,11.5,48.2,18.4,23,10.1,42,27.2,62.7,41.4,20.7,14.2,45,26.1,69.9,23,24.3-3,47.7-19.8,71.2-12.8,28.5,8.4,40,47.5,68.9,54,21.7,4.9,42.7-11.4,55.6-29.6,11.3-16,19.5-34.4,32.8-48.5"/>
    <path class="cls-1" d="M567.7,0c6.8,4.7,13.1,9.8,18.6,15.8,9.4,10.4,15.9,24.3,14.4,38.3-2.1,18.8-18.3,35.6-14.5,54.2,2.6,12.6,14,21.7,26,26.5s25,6.4,37.2,10.5c21.5,7.3,39.5,22.2,58,35.4,18.5,13.2,39.4,25.2,62.2,25.4,22.5.2,43.6-11.4,66.1-13.6,18.9-1.8,38.4,3.4,53.9,14.3,6.3,4.4,11.9,9.8,18.6,13.6,6.7,3.8,14.9,5.9,22.1,3.3,6.8-2.5,11.5-8.6,15.8-14.4,18-24.5,36-49,54-73.4"/>
    <path class="cls-2" d="M867.2,0c1.8,14.2,8.4,28.8,10.1,43.4,2.1,18.2-3.7,36.4-9.5,53.8-7.4,22.5-15.4,45.9-32.2,62.6-20.3,20.4-52.5,27.6-79.9,18.8-18.5-6-34.1-18.4-50.8-28.3-19.7-11.8-41.2-20.4-63.6-25.5-13-2.9-28.4-6.3-33.5-18.6-5.3-12.9,4.3-26.5,9.6-39.4,9-21.8,4.9-48.3-9.6-66.7"/>
    <path class="cls-1" d="M847.9,0c4.6,20.1,8.5,40.4,8.6,60.9,0,25.6-6.2,52.1-22.4,71.9s-43.6,31.5-68.3,24.7c-18.2-5-32.4-18.6-48.1-29-16.8-11-35.9-18.5-55.8-21.9-5.7-1-11.5-1.6-16.9-3.8-5.3-2.2-10.3-6.2-12-11.7-2.3-7.7,2.2-15.6,5.5-23,9.7-21.4,9.4-46.9-.3-68.2"/>
    <path class="cls-1" d="M823.4,0c9.4,31.8,9.7,66.2.8,98.1-3.3,11.8-8.3,23.9-18.1,31.2-12,8.8-28.8,8.4-42.7,3-13.9-5.4-25.7-15-37.6-23.9-11.9-8.9-24.8-17.5-39.4-20.2-8.9-1.7-19.7-1.9-24.7-9.6-4.6-7.1-1.3-16.4,1-24.5,5.1-17.6,5.1-36.6.2-54.2"/>
    <path class="cls-1" d="M800.3,0c6.5,23.7,8.3,48.7,5.1,73-1.1,8.3-2.8,16.7-7.1,23.9-4.3,7.2-11.8,12.9-20.1,13.3-9.2.4-17.5-5.4-24.1-11.9-6.6-6.4-12.6-13.9-20.8-18-13.3-6.7-31.9-4.6-40.3-16.8-3.7-5.3-4.3-12-4.8-18.4-1.3-15-2.5-30.1-3.8-45.1"/>
    <path class="cls-1" d="M773.9,0c3,14.7,5.3,29.6,6.9,44.5.7,6.8.9,14.7-4.2,19.3-4.4,4-11.3,3.9-16.9,2-5.6-1.9-10.7-5.3-16.3-7.2-9.1-3.1-19.3-2.3-27.8-6.8-8.8-4.7-14-14.6-15.6-24.5-1.5-9-.4-18.2.9-27.3"/>
    <path class="cls-1" d="M757.5,0c1.9,6.2,2.2,13,2.6,19.6.3,6.9.2,15-5.2,19.4-4.9,4-12.5,3.1-17.6-.7-5.1-3.7-8.2-9.6-10.6-15.4-3-7.4-5.3-15-6.7-22.9"/>
    <path class="cls-2" d="M887.3,0c3.7,20.8,7,41.8,7.1,63,0,24.6-4.4,49.7-16.8,70.9-4.4,7.6-10,15.4-9.5,24.2.7,11.3,11,19.2,20.4,25.6,8,5.4,16.9,11,26.4,9.9,10.2-1.2,17.8-9.8,24.5-17.5,18.8-21.7,39.1-42.1,60.7-61"/>
    <path class="cls-1" d="M908.7,0c9.1,40.6,5.3,84-10.8,122.4-3.3,8-7.2,15.9-7.8,24.6-.5,8.6,3.4,18.2,11.4,21.3,5.9,2.3,12.8.5,18.1-2.9s9.5-8.4,13.7-13.1c19.2-21.6,41.8-40.2,66.5-55.2"/>
    <path class="cls-1" d="M933.3,0c-2.9,30.9-5.9,61.9-8.8,92.8-.5,5.5-.8,11.8,2.9,15.9,3.3,3.6,8.8,4.3,13.4,3.1,4.7-1.2,8.7-4.1,12.6-6.9,15.5-11.1,31-22.1,46.5-33.2"/>
    <path class="cls-1" d="M950.5,0c0,16.7-2.3,33.4-6.8,49.5-1.5,5.5-3.2,11.8,0,16.6,3,4.5,9.2,5.5,14.6,5,9.3-1,17.9-5.5,25.2-11.4,6.2-5,11.5-10.9,16.6-17"/>
    <path class="cls-1" d="M968.6,0c-1,9.8-2,19.6-3,29.3-.5,4.4-.6,9.6,2.8,12.5,4,3.5,10.3,1.3,14.8-1.5,6.3-3.9,12-8.7,16.9-14.2"/>
    <path class="cls-1" d="M1000,284.9c-10.3,2.1-20.9,2.4-31.3.9-3.5-.5-7.3-1.4-9.3-4.3-2.5-3.7-.9-8.9,1.9-12.4,4.7-5.9,11.9-9,18.2-13.1,8.2-5.3,15.3-12.5,20.4-20.9"/>
    <path class="cls-2" d="M0,136.9c21.9-1.8,44.6,6.2,60.2,21.7,7.5,7.5,13.7,16.8,23.1,21.6,11,5.7,24.3,4.3,36.1.7,22.8-6.9,43.1-21.4,57-40.8,16.6-23.1,25-53.3,48.8-68.9,16.2-10.6,36.6-12.2,54.2-20.4,20.6-9.5,36.2-28.8,41.9-50.8"/>
    <path class="cls-1" d="M0,86.2c16.1-5.8,33.6-6.7,49,0,13.2,5.8,23.6,16.5,35,25.4s25.6,16.3,39.8,13.7c13.2-2.4,23.4-13,30.9-24.1,7.5-11.2,13.2-23.6,22.5-33.3,11.2-11.7,26.5-18.5,41.7-24.1s30.9-10.5,44.4-19.4c9.2-6.1,17.4-14.5,22-24.3"/>
    <path class="cls-2" d="M0,61.9c28.5-1,57.3,7.3,85.9,11.7,14,2.2,29.2,3.2,41.5-3.7,9.5-5.3,16-14.7,24.6-21.3,9.8-7.4,21.8-11,33.7-14s24-5.7,34.7-11.8C229.5,17.7,237.4,9.7,240.6,0"/>
    <path class="cls-1" d="M0,47.6c30.6-1.9,63,11.2,93.1,3.4,21.3-5.5,38.8-20.8,59.7-27.6,11.7-3.8,24.1-4.9,35.9-8.3C198.2,12.3,207.6,7.6,213.8,0"/>
    <path class="cls-1" d="M0,18.5c18.2,4.7,35.3,17.8,54.4,20.8,22,3.5,43.8-6.7,62.6-18.6C127.7,13.9,138.2,6.3,149.3,0"/>
    <path class="cls-1" d="M15.4,0c6.4,10.2,15.2,19,26.2,23.7,15.3,6.5,33.2,4.2,48.5-2.4,12.2-5.3,23.1-13.1,33.6-21.3"/>
    <path class="cls-1" d="M41.8,0c7.3,8.7,18.7,14.1,30.2,13.6,10.3-.5,20.2-5.7,26.8-13.6"/>
  </g>
</svg>